<svg xmlns="http://www.w3.org/2000/svg" viewBox="0 0 512 512" role="img" aria-label="TruffleTrade">
<rect width="512" height="512" rx="112" fill="#0d0b09"/>
<path d="M95.5 247.9C94.8 244.5 93.5 238.8 93.1 234.2C92.7 229.6 92.7 224.8 93.1 220.2C93.5 215.6 95.7 210.2 95.5 206.5C95.3 202.8 93.5 200.9 91.8 197.9C90.1 195.0 87.2 192.0 85.4 188.8C83.5 185.6 81.9 182.2 80.7 178.7C79.4 175.2 78.4 171.6 77.8 167.9C77.1 164.3 76.8 160.5 76.8 156.8C76.8 153.1 77.1 149.3 77.8 145.7C78.4 142.0 79.4 138.4 80.7 134.9C81.9 131.4 83.5 128.0 85.4 124.8C87.2 121.6 89.4 118.5 91.8 115.7C94.2 112.8 96.8 110.2 99.7 107.8C102.5 105.4 105.6 103.2 108.8 101.4C112.0 99.5 115.4 97.9 118.9 96.7C122.4 95.4 126.0 94.4 129.7 93.8C133.3 93.1 137.1 92.8 140.8 92.8C144.5 92.8 148.3 93.1 151.9 93.8C155.6 94.4 159.2 95.4 162.7 96.7C166.2 97.9 169.6 99.5 172.8 101.4C176.0 103.2 178.5 107.6 181.9 107.8C185.4 108.0 190.0 104.8 193.7 102.5C197.4 100.2 200.3 96.4 203.9 93.9C207.6 91.3 211.5 89.1 215.5 87.2C219.6 85.3 223.8 83.8 228.1 82.6C232.4 81.5 236.9 80.7 241.3 80.3C245.7 79.9 250.3 79.9 254.7 80.3C259.1 80.7 263.6 81.5 267.9 82.6C272.2 83.8 276.4 85.3 280.5 87.2C284.5 89.1 288.4 91.3 292.1 93.9C295.7 96.4 299.2 99.4 302.3 102.5C305.4 105.6 307.7 109.5 310.9 112.7C314.2 116.0 318.0 120.3 321.9 121.9C325.7 123.4 330.1 121.5 334.1 121.9C338.2 122.2 342.3 122.9 346.2 124.0C350.2 125.1 354.1 126.5 357.8 128.2C361.4 129.9 365.0 132.0 368.4 134.3C371.7 136.7 374.9 139.3 377.8 142.2C380.7 145.1 383.3 148.3 385.7 151.6C388.0 155.0 390.1 158.6 391.8 162.2C393.5 165.9 394.9 169.8 396.0 173.8C397.1 177.7 397.8 181.8 398.1 185.9C398.5 189.9 398.1 194.0 398.1 198.1C398.2 202.3 396.8 207.4 398.4 210.6C400.0 213.8 405.0 214.8 408.0 217.3C411.0 219.8 413.8 222.6 416.3 225.6C418.8 228.6 421.1 231.8 423.0 235.2C424.9 238.6 426.6 242.2 427.9 245.8C429.3 249.5 430.3 253.3 431.0 257.1C431.7 261.0 432.0 264.9 432.0 268.8C432.0 272.7 431.7 276.6 431.0 280.5C430.3 284.3 429.3 288.1 427.9 291.8C426.6 295.4 424.9 299.0 423.0 302.4C421.1 305.8 418.8 309.0 416.3 312.0C413.8 315.0 411.0 317.8 408.0 320.3C405.0 322.8 401.5 325.2 398.4 327.0C395.3 328.8 390.6 328.4 389.3 331.2C387.9 334.1 390.4 339.7 390.4 344.0C390.4 348.3 390.0 352.6 389.3 356.8C388.5 361.0 387.4 365.2 386.0 369.2C384.5 373.2 382.7 377.1 380.5 380.8C378.4 384.5 375.9 388.0 373.2 391.3C370.4 394.6 367.4 397.6 364.1 400.4C360.8 403.1 357.3 405.6 353.6 407.7C349.9 409.9 346.0 411.7 342.0 413.2C338.0 414.6 333.8 415.7 329.6 416.5C325.4 417.2 321.1 417.6 316.8 417.6C312.5 417.6 308.2 417.2 304.0 416.5C299.8 415.7 295.3 412.8 291.6 413.2C288.0 413.5 285.3 416.6 282.1 418.7C278.8 420.8 275.5 423.7 272.0 425.8C268.5 427.8 264.7 429.6 260.9 431.0C257.0 432.3 253.0 433.4 249.0 434.1C245.0 434.8 240.9 435.2 236.8 435.2C232.7 435.2 228.6 434.8 224.6 434.1C220.6 433.4 216.6 432.3 212.7 431.0C208.9 429.6 205.1 427.8 201.6 425.8C198.1 423.7 194.7 421.3 191.5 418.7C188.4 416.1 185.5 413.2 182.9 410.1C180.3 406.9 178.6 403.3 175.8 400.0C173.1 396.7 170.1 391.8 166.4 390.1C162.7 388.5 157.8 390.5 153.6 390.1C149.3 389.7 145.1 389.0 141.0 387.9C136.8 386.8 132.8 385.3 128.9 383.5C125.0 381.7 121.3 379.5 117.8 377.1C114.3 374.6 111.0 371.9 108.0 368.8C104.9 365.8 102.2 362.5 99.7 359.0C97.3 355.5 95.1 351.8 93.3 347.9C91.5 344.0 90.0 340.0 88.9 335.8C87.8 331.7 87.1 327.5 86.7 323.2C86.3 319.0 86.3 314.6 86.7 310.4C87.1 306.1 87.8 301.9 88.9 297.8C90.0 293.6 91.5 289.6 93.3 285.7C95.1 281.8 98.0 277.7 99.7 274.6C101.4 271.5 103.9 270.5 103.5 267.2C103.2 263.9 99.0 257.8 97.6 254.6C96.3 251.3 96.3 251.3 95.5 247.9Z" fill="#1b1512"/>
<defs><radialGradient id="lg173_227" cx=".38" cy=".32" r=".78"><stop offset="0" stop-color="#463a30"/><stop offset=".45" stop-color="#2f2620"/><stop offset="1" stop-color="#241c17"/></radialGradient><radialGradient id="lg248_157" cx=".38" cy=".32" r=".78"><stop offset="0" stop-color="#463a30"/><stop offset=".45" stop-color="#2f2620"/><stop offset="1" stop-color="#241c17"/></radialGradient><radialGradient id="lg328_192" cx=".38" cy=".32" r=".78"><stop offset="0" stop-color="#463a30"/><stop offset=".45" stop-color="#2f2620"/><stop offset="1" stop-color="#241c17"/></radialGradient><radialGradient id="lg365_269" cx=".38" cy=".32" r=".78"><stop offset="0" stop-color="#463a30"/><stop offset=".45" stop-color="#2f2620"/><stop offset="1" stop-color="#241c17"/></radialGradient><radialGradient id="lg317_344" cx=".38" cy=".32" r=".78"><stop offset="0" stop-color="#463a30"/><stop offset=".45" stop-color="#2f2620"/><stop offset="1" stop-color="#241c17"/></radialGradient><radialGradient id="lg237_365" cx=".38" cy=".32" r=".78"><stop offset="0" stop-color="#463a30"/><stop offset=".45" stop-color="#2f2620"/><stop offset="1" stop-color="#241c17"/></radialGradient><radialGradient id="lg160_317" cx=".38" cy=".32" r=".78"><stop offset="0" stop-color="#463a30"/><stop offset=".45" stop-color="#2f2620"/><stop offset="1" stop-color="#241c17"/></radialGradient><radialGradient id="lg141_157" cx=".38" cy=".32" r=".78"><stop offset="0" stop-color="#463a30"/><stop offset=".45" stop-color="#2f2620"/><stop offset="1" stop-color="#241c17"/></radialGradient><radialGradient id="lg272_248" cx=".38" cy=".32" r=".78"><stop offset="0" stop-color="#463a30"/><stop offset=".45" stop-color="#2f2620"/><stop offset="1" stop-color="#241c17"/></radialGradient></defs><circle cx="172.8" cy="227.2" r="80.0" fill="url(#lg173_227)"/><circle cx="172.8" cy="227.2" r="80.0" fill="none" stroke="#0c0907" stroke-opacity=".55" stroke-width="4.00"/><circle cx="248.0" cy="156.8" r="76.8" fill="url(#lg248_157)"/><circle cx="248.0" cy="156.8" r="76.8" fill="none" stroke="#0c0907" stroke-opacity=".55" stroke-width="3.84"/><circle cx="328.0" cy="192.0" r="70.4" fill="url(#lg328_192)"/><circle cx="328.0" cy="192.0" r="70.4" fill="none" stroke="#0c0907" stroke-opacity=".55" stroke-width="3.52"/><circle cx="364.8" cy="268.8" r="67.2" fill="url(#lg365_269)"/><circle cx="364.8" cy="268.8" r="67.2" fill="none" stroke="#0c0907" stroke-opacity=".55" stroke-width="3.36"/><circle cx="316.8" cy="344.0" r="73.6" fill="url(#lg317_344)"/><circle cx="316.8" cy="344.0" r="73.6" fill="none" stroke="#0c0907" stroke-opacity=".55" stroke-width="3.68"/><circle cx="236.8" cy="364.8" r="70.4" fill="url(#lg237_365)"/><circle cx="236.8" cy="364.8" r="70.4" fill="none" stroke="#0c0907" stroke-opacity=".55" stroke-width="3.52"/><circle cx="160.0" cy="316.8" r="73.6" fill="url(#lg160_317)"/><circle cx="160.0" cy="316.8" r="73.6" fill="none" stroke="#0c0907" stroke-opacity=".55" stroke-width="3.68"/><circle cx="140.8" cy="156.8" r="64.0" fill="url(#lg141_157)"/><circle cx="140.8" cy="156.8" r="64.0" fill="none" stroke="#0c0907" stroke-opacity=".55" stroke-width="3.20"/><circle cx="272.0" cy="248.0" r="80.0" fill="url(#lg272_248)"/><circle cx="272.0" cy="248.0" r="80.0" fill="none" stroke="#0c0907" stroke-opacity=".55" stroke-width="4.00"/>
<path d="M95.5 247.9C94.8 244.5 93.5 238.8 93.1 234.2C92.7 229.6 92.7 224.8 93.1 220.2C93.5 215.6 95.7 210.2 95.5 206.5C95.3 202.8 93.5 200.9 91.8 197.9C90.1 195.0 87.2 192.0 85.4 188.8C83.5 185.6 81.9 182.2 80.7 178.7C79.4 175.2 78.4 171.6 77.8 167.9C77.1 164.3 76.8 160.5 76.8 156.8C76.8 153.1 77.1 149.3 77.8 145.7C78.4 142.0 79.4 138.4 80.7 134.9C81.9 131.4 83.5 128.0 85.4 124.8C87.2 121.6 89.4 118.5 91.8 115.7C94.2 112.8 96.8 110.2 99.7 107.8C102.5 105.4 105.6 103.2 108.8 101.4C112.0 99.5 115.4 97.9 118.9 96.7C122.4 95.4 126.0 94.4 129.7 93.8C133.3 93.1 137.1 92.8 140.8 92.8C144.5 92.8 148.3 93.1 151.9 93.8C155.6 94.4 159.2 95.4 162.7 96.7C166.2 97.9 169.6 99.5 172.8 101.4C176.0 103.2 178.5 107.6 181.9 107.8C185.4 108.0 190.0 104.8 193.7 102.5C197.4 100.2 200.3 96.4 203.9 93.9C207.6 91.3 211.5 89.1 215.5 87.2C219.6 85.3 223.8 83.8 228.1 82.6C232.4 81.5 236.9 80.7 241.3 80.3C245.7 79.9 250.3 79.9 254.7 80.3C259.1 80.7 263.6 81.5 267.9 82.6C272.2 83.8 276.4 85.3 280.5 87.2C284.5 89.1 288.4 91.3 292.1 93.9C295.7 96.4 299.2 99.4 302.3 102.5C305.4 105.6 307.7 109.5 310.9 112.7C314.2 116.0 318.0 120.3 321.9 121.9C325.7 123.4 330.1 121.5 334.1 121.9C338.2 122.2 342.3 122.9 346.2 124.0C350.2 125.1 354.1 126.5 357.8 128.2C361.4 129.9 365.0 132.0 368.4 134.3C371.7 136.7 374.9 139.3 377.8 142.2C380.7 145.1 383.3 148.3 385.7 151.6C388.0 155.0 390.1 158.6 391.8 162.2C393.5 165.9 394.9 169.8 396.0 173.8C397.1 177.7 397.8 181.8 398.1 185.9C398.5 189.9 398.1 194.0 398.1 198.1C398.2 202.3 396.8 207.4 398.4 210.6C400.0 213.8 405.0 214.8 408.0 217.3C411.0 219.8 413.8 222.6 416.3 225.6C418.8 228.6 421.1 231.8 423.0 235.2C424.9 238.6 426.6 242.2 427.9 245.8C429.3 249.5 430.3 253.3 431.0 257.1C431.7 261.0 432.0 264.9 432.0 268.8C432.0 272.7 431.7 276.6 431.0 280.5C430.3 284.3 429.3 288.1 427.9 291.8C426.6 295.4 424.9 299.0 423.0 302.4C421.1 305.8 418.8 309.0 416.3 312.0C413.8 315.0 411.0 317.8 408.0 320.3C405.0 322.8 401.5 325.2 398.4 327.0C395.3 328.8 390.6 328.4 389.3 331.2C387.9 334.1 390.4 339.7 390.4 344.0C390.4 348.3 390.0 352.6 389.3 356.8C388.5 361.0 387.4 365.2 386.0 369.2C384.5 373.2 382.7 377.1 380.5 380.8C378.4 384.5 375.9 388.0 373.2 391.3C370.4 394.6 367.4 397.6 364.1 400.4C360.8 403.1 357.3 405.6 353.6 407.7C349.9 409.9 346.0 411.7 342.0 413.2C338.0 414.6 333.8 415.7 329.6 416.5C325.4 417.2 321.1 417.6 316.8 417.6C312.5 417.6 308.2 417.2 304.0 416.5C299.8 415.7 295.3 412.8 291.6 413.2C288.0 413.5 285.3 416.6 282.1 418.7C278.8 420.8 275.5 423.7 272.0 425.8C268.5 427.8 264.7 429.6 260.9 431.0C257.0 432.3 253.0 433.4 249.0 434.1C245.0 434.8 240.9 435.2 236.8 435.2C232.7 435.2 228.6 434.8 224.6 434.1C220.6 433.4 216.6 432.3 212.7 431.0C208.9 429.6 205.1 427.8 201.6 425.8C198.1 423.7 194.7 421.3 191.5 418.7C188.4 416.1 185.5 413.2 182.9 410.1C180.3 406.9 178.6 403.3 175.8 400.0C173.1 396.7 170.1 391.8 166.4 390.1C162.7 388.5 157.8 390.5 153.6 390.1C149.3 389.7 145.1 389.0 141.0 387.9C136.8 386.8 132.8 385.3 128.9 383.5C125.0 381.7 121.3 379.5 117.8 377.1C114.3 374.6 111.0 371.9 108.0 368.8C104.9 365.8 102.2 362.5 99.7 359.0C97.3 355.5 95.1 351.8 93.3 347.9C91.5 344.0 90.0 340.0 88.9 335.8C87.8 331.7 87.1 327.5 86.7 323.2C86.3 319.0 86.3 314.6 86.7 310.4C87.1 306.1 87.8 301.9 88.9 297.8C90.0 293.6 91.5 289.6 93.3 285.7C95.1 281.8 98.0 277.7 99.7 274.6C101.4 271.5 103.9 270.5 103.5 267.2C103.2 263.9 99.0 257.8 97.6 254.6C96.3 251.3 96.3 251.3 95.5 247.9Z" fill="none" stroke="#0c0907" stroke-opacity=".9" stroke-width="4.10"/>
<linearGradient id="goldA" x1="0" y1="1" x2="1" y2="0"><stop offset="0" stop-color="#8a5f1e"/><stop offset=".5" stop-color="#e8b452"/><stop offset="1" stop-color="#f6d488"/></linearGradient><path d="M131.2 339.2 L201.6 272.0 L243.2 300.8 L323.2 220.8 L352.0 240.0 L387.2 172.8" fill="none" stroke="url(#goldA)" stroke-width="20.8" stroke-linecap="round" stroke-linejoin="round"/><path d="M387.2 172.8 L386.3 211.2 L356.1 195.4 Z" fill="#f6d488"/>
</svg>
