<svg xmlns="http://www.w3.org/2000/svg" viewBox="0 0 960 420" role="img" aria-label="Simulated market: candlesticks with nine AI analyst votes and the consensus band">
  <defs>
    <linearGradient id="area" x1="0" y1="0" x2="0" y2="1">
      <stop offset="0" stop-color="#58a97b" stop-opacity=".22"/>
      <stop offset="1" stop-color="#58a97b" stop-opacity="0"/>
    </linearGradient>
    <linearGradient id="band" x1="0" y1="0" x2="0" y2="1">
      <stop offset="0" stop-color="#e8ae52" stop-opacity=".2"/>
      <stop offset="1" stop-color="#e8ae52" stop-opacity=".04"/>
    </linearGradient>
  </defs>
  <rect width="960" height="420" rx="16" fill="#0c1210"/>

  <!-- consensus projection band -->
  <path d="M700 175 C 780 165, 850 150, 930 120 L930 190 C 850 205, 780 215, 700 225 Z" fill="url(#band)" stroke="#e8ae52" stroke-opacity=".35" stroke-dasharray="5 5"/>

  <!-- grid -->
  <g stroke="#22302a" stroke-dasharray="3 5">
    <line x1="40" y1="90" x2="920" y2="90"/>
    <line x1="40" y1="160" x2="920" y2="160"/>
    <line x1="40" y1="230" x2="920" y2="230"/>
    <line x1="40" y1="300" x2="920" y2="300"/>
  </g>

  <!-- candles -->
  <g stroke-linecap="round">
    <g stroke="#4ade80" fill="#12331f">
      <line x1="60" y1="255" x2="60" y2="315"/><rect x="52" y="268" width="16" height="34" rx="2"/>
      <line x1="90" y1="248" x2="90" y2="308"/><rect x="82" y="260" width="16" height="36" rx="2"/>
      <line x1="150" y1="238" x2="150" y2="296"/><rect x="142" y="250" width="16" height="34" rx="2"/>
      <line x1="180" y1="228" x2="180" y2="290"/><rect x="172" y="240" width="16" height="38" rx="2"/>
      <line x1="240" y1="220" x2="240" y2="282"/><rect x="232" y="232" width="16" height="36" rx="2"/>
      <line x1="270" y1="205" x2="270" y2="268"/><rect x="262" y="218" width="16" height="38" rx="2"/>
      <line x1="330" y1="196" x2="330" y2="258"/><rect x="322" y="208" width="16" height="36" rx="2"/>
      <line x1="390" y1="188" x2="390" y2="252"/><rect x="382" y="200" width="16" height="40" rx="2"/>
      <line x1="450" y1="178" x2="450" y2="242"/><rect x="442" y="190" width="16" height="40" rx="2"/>
      <line x1="480" y1="168" x2="480" y2="230"/><rect x="472" y="180" width="16" height="38" rx="2"/>
      <line x1="570" y1="158" x2="570" y2="222"/><rect x="562" y="170" width="16" height="40" rx="2"/>
      <line x1="600" y1="150" x2="600" y2="212"/><rect x="592" y="162" width="16" height="38" rx="2"/>
      <line x1="700" y1="140" x2="700" y2="205"/><rect x="692" y="152" width="16" height="40" rx="2"/>
      <line x1="760" y1="130" x2="760" y2="196"/><rect x="752" y="142" width="16" height="42" rx="2"/>
      <line x1="860" y1="118" x2="860" y2="188"/><rect x="852" y="130" width="16" height="44" rx="2"/>
    </g>
    <g stroke="#f07a5a" fill="#3a1710">
      <line x1="120" y1="252" x2="120" y2="312"/><rect x="112" y="262" width="16" height="36" rx="2"/>
      <line x1="210" y1="232" x2="210" y2="292"/><rect x="202" y="242" width="16" height="36" rx="2"/>
      <line x1="300" y1="208" x2="300" y2="268"/><rect x="292" y="218" width="16" height="36" rx="2"/>
      <line x1="360" y1="200" x2="360" y2="256"/><rect x="352" y="208" width="16" height="34" rx="2"/>
      <line x1="420" y1="184" x2="420" y2="240"/><rect x="412" y="192" width="16" height="34" rx="2"/>
      <line x1="510" y1="172" x2="510" y2="230"/><rect x="502" y="180" width="16" height="36" rx="2"/>
      <line x1="540" y1="164" x2="540" y2="224"/><rect x="532" y="176" width="16" height="36" rx="2"/>
      <line x1="630" y1="152" x2="630" y2="208"/><rect x="622" y="160" width="16" height="34" rx="2"/>
      <line x1="660" y1="146" x2="660" y2="200"/><rect x="652" y="156" width="16" height="32" rx="2"/>
      <line x1="730" y1="136" x2="730" y2="192"/><rect x="722" y="146" width="16" height="34" rx="2"/>
      <line x1="790" y1="128" x2="790" y2="182"/><rect x="782" y="136" width="16" height="32" rx="2"/>
      <line x1="820" y1="122" x2="820" y2="176"/><rect x="812" y="130" width="16" height="34" rx="2"/>
      <line x1="890" y1="116" x2="890" y2="168"/><rect x="882" y="124" width="16" height="32" rx="2"/>
    </g>
  </g>

  <!-- area under price -->
  <path d="M60 300 L120 292 L180 275 L240 258 L300 244 L360 230 L420 220 L480 205 L540 196 L600 184 L660 176 L700 172 L760 160 L820 152 L860 145 L920 132 L920 380 L60 380 Z" fill="url(#area)"/>

  <!-- last price tag -->
  <rect x="866" y="196" width="52" height="22" rx="5" fill="#1a2b21" stroke="#2e4038"/>
  <text x="892" y="211" text-anchor="middle" font-family="Manrope,Arial" font-size="12" font-weight="700" fill="#4ade80">287.40</text>

  <!-- nine analyst votes -->
  <g font-family="Manrope,Arial" font-size="11" font-weight="600">
    <g>
      <rect x="52" y="30" width="120" height="26" rx="7" fill="#12331f" stroke="#2e4038"/>
      <circle cx="66" cy="43" r="4" fill="#4ade80"/>
      <text x="78" y="47" fill="#9db1a3">Fundamentals · bull</text>
    </g>
    <g>
      <rect x="182" y="30" width="112" height="26" rx="7" fill="#12331f" stroke="#2e4038"/>
      <circle cx="196" cy="43" r="4" fill="#4ade80"/>
      <text x="208" y="47" fill="#9db1a3">Valuation · bull</text>
    </g>
    <g>
      <rect x="304" y="30" width="112" height="26" rx="7" fill="#12331f" stroke="#2e4038"/>
      <circle cx="318" cy="43" r="4" fill="#4ade80"/>
      <text x="330" y="47" fill="#9db1a3">Technicals</text>
    </g>
    <g>
      <rect x="426" y="30" width="96" height="26" rx="7" fill="#1a2b21" stroke="#2e4038"/>
      <circle cx="440" cy="43" r="4" fill="#e8ae52"/>
      <text x="452" y="47" fill="#9db1a3">Macro</text>
    </g>
    <g>
      <rect x="532" y="30" width="118" height="26" rx="7" fill="#12331f" stroke="#2e4038"/>
      <circle cx="546" cy="43" r="4" fill="#4ade80"/>
      <text x="558" y="47" fill="#9db1a3">Competition</text>
    </g>
    <g>
      <rect x="660" y="30" width="86" height="26" rx="7" fill="#1a2b21" stroke="#2e4038"/>
      <circle cx="674" cy="43" r="4" fill="#e8ae52"/>
      <text x="686" y="47" fill="#9db1a3">News</text>
    </g>
    <g>
      <rect x="756" y="30" width="128" height="26" rx="7" fill="#12331f" stroke="#2e4038"/>
      <circle cx="770" cy="43" r="4" fill="#4ade80"/>
      <text x="782" y="47" fill="#9db1a3">Chart patterns</text>
    </g>
    <g>
      <rect x="52" y="64" width="112" height="26" rx="7" fill="#12331f" stroke="#2e4038"/>
      <circle cx="66" cy="77" r="4" fill="#4ade80"/>
      <text x="78" y="81" fill="#9db1a3">Scenario · bull</text>
    </g>
    <g>
      <rect x="174" y="64" width="104" height="26" rx="7" fill="#12331f" stroke="#2e4038"/>
      <circle cx="188" cy="77" r="4" fill="#4ade80"/>
      <text x="200" y="81" fill="#9db1a3">Backtest +8/12</text>
    </g>
  </g>

  <!-- consensus label -->
  <g>
    <rect x="700" y="96" width="220" height="30" rx="8" fill="#14251c" stroke="#2e4038"/>
    <circle cx="718" cy="111" r="4" fill="#4ade80"/>
    <text x="730" y="115" font-family="Manrope,Arial" font-size="12" font-weight="800" fill="#dce7de">Consensus: bullish · score +0.62</text>
  </g>

  <!-- watermark -->
  <text x="34" y="402" font-family="Manrope,Arial" font-size="10" letter-spacing="2" fill="#66796d">TRUFFLETRADE · SIMULATED SESSION · 9 ANALYSTS · FACT-CHECKED · RED-TEAM GATED</text>
</svg>
