<svg xmlns="http://www.w3.org/2000/svg" viewBox="0 0 240 240" role="img" aria-label="TruffleTrade">
  <defs>
    <linearGradient id="bg" x1="0" y1="0" x2="1" y2="1">
      <stop offset="0" stop-color="#241a13"/>
      <stop offset="1" stop-color="#090705"/>
    </linearGradient>
    <radialGradient id="truffle" cx=".36" cy=".3" r=".8">
      <stop offset="0" stop-color="#5e4a38"/>
      <stop offset=".6" stop-color="#2d221a"/>
      <stop offset="1" stop-color="#17110d"/>
    </radialGradient>
    <linearGradient id="gold" x1="0" y1="1" x2="1" y2="0">
      <stop offset="0" stop-color="#b8842f"/>
      <stop offset=".5" stop-color="#ecb95a"/>
      <stop offset="1" stop-color="#fbe2a0"/>
    </linearGradient>
  </defs>
  <rect width="240" height="240" rx="60" fill="url(#bg)"/>
  <path d="M112 74C130 68 150 76 158 92C172 96 181 112 175 128C184 142 177 162 161 170C155 186 133 194 117 186C99 194 77 186 71 168C53 162 47 140 57 126C49 110 59 92 77 88C83 74 99 68 112 74Z" fill="url(#truffle)" stroke="#080604" stroke-width="3"/>
  <path d="M36 184L86 132L112 154L150 108L168 126L206 64" fill="none" stroke="url(#gold)" stroke-width="18" stroke-linecap="round" stroke-linejoin="round"/>
  <path d="M170 64L206 64L206 100" fill="none" stroke="#fbe2a0" stroke-width="18" stroke-linecap="round" stroke-linejoin="round"/>
</svg>
